<?xml version="1.0" standalone="no"?>
<!DOCTYPE svg PUBLIC "-//W3C//DTD SVG 20010904//EN"
 "http://www.w3.org/TR/2001/REC-SVG-20010904/DTD/svg10.dtd">
<svg version="1.0" xmlns="http://www.w3.org/2000/svg"
 width="1158.000000pt" height="1158.000000pt" viewBox="0 0 1158.000000 1158.000000"
 preserveAspectRatio="xMidYMid meet">
<metadata>
Created by potrace 1.11, written by Peter Selinger 2001-2013
</metadata>
<g transform="translate(0.000000,1158.000000) scale(0.100000,-0.100000)"
fill="#000000" stroke="none">
<path d="M5618 11525 c-27 -6 -48 -10 -48 -8 0 6 -104 -49 -177 -94 -60 -37
-75 -52 -96 -96 -54 -114 -65 -144 -81 -217 -15 -70 -17 -97 -18 -205 -1 -100
6 -220 17 -285 2 -14 7 -45 10 -70 14 -104 37 -162 165 -432 l22 -48 -28 -53
c-38 -69 -87 -146 -95 -147 -3 0 -13 15 -22 33 -18 35 -31 56 -62 102 -11 17
-29 47 -40 68 -11 20 -22 37 -25 37 -4 0 -12 16 -20 35 -8 19 -17 35 -21 35
-4 0 -10 9 -14 20 -3 11 -23 45 -45 77 -21 32 -48 77 -60 101 -12 23 -26 42
-31 42 -5 0 -9 6 -9 13 0 7 -16 36 -35 64 -19 29 -35 54 -35 57 0 2 -17 31
-38 63 -21 32 -56 86 -78 120 -35 56 -64 80 -64 53 0 -5 -6 -10 -13 -10 -18 0
-117 -69 -124 -86 -3 -8 7 -33 23 -55 16 -23 33 -50 39 -60 5 -10 40 -66 78
-123 37 -58 67 -110 67 -116 0 -5 4 -10 9 -10 5 0 11 -8 15 -17 3 -10 37 -67
76 -128 66 -105 140 -229 149 -250 2 -5 8 -14 13 -20 21 -26 76 -115 71 -115
-3 0 -1 -6 6 -13 8 -11 -1 -17 -45 -31 -30 -10 -63 -19 -72 -21 -9 -2 -37 -11
-62 -20 -56 -21 -80 -26 -153 -30 -121 -7 -173 -14 -198 -23 -15 -6 -30 -8
-33 -5 -3 4 -6 1 -6 -5 0 -6 -13 -13 -29 -17 -50 -11 -177 -103 -245 -177 -36
-39 -81 -101 -100 -137 -37 -70 -100 -266 -110 -341 -3 -25 -8 -55 -11 -68 -2
-13 -7 -60 -10 -105 -7 -91 -14 -107 -95 -227 -31 -47 -74 -124 -95 -173 -20
-48 -43 -87 -50 -87 -6 0 -20 -16 -31 -35 -10 -19 -20 -35 -21 -35 -1 0 -18 9
-37 21 -20 12 -36 18 -36 14 0 -4 -6 -3 -12 3 -7 5 -44 19 -83 31 -98 29 -311
166 -338 217 -15 28 -126 144 -138 144 -5 0 -9 6 -9 13 0 6 -13 38 -30 70 -16
32 -31 71 -34 87 -4 29 -55 120 -80 145 -11 12 -40 24 -61 26 -29 3 -63 37
-88 87 -59 121 -105 182 -137 182 -29 0 -54 -37 -53 -78 2 -64 19 -105 78
-188 l45 -62 -31 -26 c-17 -14 -34 -26 -37 -27 -4 0 -24 -2 -46 -4 -21 -2 -41
-7 -45 -13 -3 -5 -29 -20 -58 -32 -59 -25 -81 -52 -90 -113 -10 -70 -7 -190 6
-230 7 -21 14 -44 15 -50 2 -7 8 -25 14 -40 7 -16 12 -32 12 -37 0 -14 78 -90
92 -90 8 0 19 -5 26 -12 18 -18 77 -35 97 -28 15 5 54 5 160 -3 17 -1 42 -14
58 -29 16 -16 32 -28 36 -28 5 0 54 -53 109 -117 111 -130 115 -135 228 -260
206 -228 369 -357 451 -356 27 0 154 30 208 49 64 23 168 106 241 194 41 50
72 79 80 76 20 -8 66 45 53 60 -15 19 -9 37 34 96 123 173 200 286 208 303 6
11 16 31 24 45 13 23 15 23 16 5 0 -11 3 -51 5 -89 2 -38 6 -83 9 -100 3 -17
8 -49 10 -71 5 -42 22 -166 31 -225 3 -19 7 -53 10 -75 2 -22 6 -58 8 -80 16
-136 20 -221 17 -331 l-1 -42 -47 2 c-43 1 -49 -2 -62 -29 -9 -19 -15 -62 -15
-115 l-1 -84 -35 -2 c-19 -1 -38 -2 -41 -3 -11 -2 -47 -93 -54 -136 -13 -73
-14 -114 -4 -121 6 -4 6 -11 -2 -20 -6 -8 -8 -14 -5 -14 4 0 2 -9 -4 -19 -5
-11 -6 -22 -1 -25 4 -3 0 -29 -10 -58 -25 -73 -24 -89 12 -118 93 -75 95 -78
78 -95 -9 -9 -33 -18 -53 -20 -20 -2 -43 -9 -51 -15 -18 -15 -18 -9 -1 57 l14
53 -40 11 c-47 12 -54 8 -87 -56 -12 -22 -21 -35 -21 -29 0 7 -9 14 -21 17
-22 6 -30 -6 -33 -48 0 -14 -8 -26 -16 -27 -31 -3 -35 -4 -51 -13 -28 -18 -70
-122 -94 -232 -3 -18 -10 -33 -14 -33 -4 0 -18 -35 -30 -77 -13 -43 -29 -91
-36 -108 -7 -16 -20 -52 -30 -80 -9 -27 -21 -59 -26 -70 -4 -11 -24 -60 -43
-110 -33 -87 -39 -109 -51 -185 -3 -19 -8 -43 -11 -52 -3 -9 -7 -27 -10 -40
-12 -59 -26 -125 -30 -148 -3 -14 -7 -32 -10 -42 -2 -9 -5 -42 -5 -74 -1 -41
-6 -63 -19 -76 -10 -11 -30 -59 -45 -106 -26 -80 -32 -111 -40 -200 -3 -28 -7
-49 -21 -97 -2 -5 -6 -23 -9 -40 -3 -16 -8 -38 -11 -47 -3 -10 3 -21 15 -28
11 -6 32 -22 45 -35 14 -14 36 -25 50 -25 25 0 25 0 10 -41 -8 -23 -16 -51
-18 -63 -26 -125 -49 -225 -67 -281 -11 -37 -22 -75 -24 -84 -2 -9 -9 -29 -15
-46 -6 -16 -13 -37 -15 -45 -2 -8 -31 -85 -64 -170 -72 -188 -73 -190 -78
-215 -2 -11 -8 -37 -14 -58 -11 -43 -14 -130 -5 -146 4 -5 2 -12 -3 -15 -5 -3
-7 -33 -4 -67 2 -34 1 -69 -3 -78 -4 -9 -8 -23 -9 -31 -9 -60 -17 -95 -24
-104 -11 -15 -46 -110 -42 -115 1 -2 -1 -7 -6 -10 -11 -7 -71 -202 -77 -251
-3 -19 -8 -46 -11 -60 -8 -35 -43 -226 -50 -275 -4 -22 -8 -48 -11 -57 -6 -21
-9 -38 -34 -178 -11 -63 -25 -130 -31 -148 -6 -18 -12 -39 -13 -45 -2 -7 -8
-24 -14 -38 -5 -14 -12 -39 -15 -55 -3 -16 -22 -90 -42 -164 -55 -201 -74
-289 -75 -347 0 -44 -5 -58 -30 -86 -16 -19 -30 -42 -30 -50 0 -9 -9 -19 -20
-22 -11 -3 -20 -13 -20 -21 0 -8 -7 -17 -15 -20 -11 -5 -68 -154 -80 -214 -3
-14 -36 -75 -114 -213 -18 -31 -30 -57 -27 -57 4 0 -1 -14 -9 -31 -9 -16 -15
-39 -13 -50 2 -14 -7 -26 -27 -37 -16 -9 -32 -21 -34 -26 -2 -5 -11 -16 -20
-25 -9 -9 -25 -33 -36 -54 -11 -20 -23 -37 -28 -37 -4 0 -3 -8 2 -18 6 -12 6
-23 1 -28 -5 -5 -11 -32 -13 -59 -3 -28 -8 -59 -13 -69 -5 -14 -4 -17 4 -12 8
5 12 -1 12 -16 0 -18 2 -20 10 -8 8 13 10 12 10 -4 0 -14 3 -16 13 -7 15 12
27 6 23 -12 -2 -7 -1 -9 1 -4 3 4 14 7 26 7 18 0 20 -2 7 -11 -12 -9 -12 -10
3 -5 10 3 21 6 23 6 3 0 2 5 -2 11 -5 8 -1 8 13 0 11 -6 23 -8 25 -5 3 3 8 -2
12 -11 5 -13 2 -14 -14 -5 -22 12 -40 6 -40 -13 0 -7 4 -6 10 3 6 9 13 11 18
5 10 -14 51 -15 46 -1 -5 14 33 19 41 5 3 -5 -1 -6 -9 -3 -9 3 -16 2 -16 -3 0
-5 15 -9 34 -9 19 0 32 4 30 8 -3 5 -9 6 -13 4 -4 -3 -8 1 -8 8 0 11 4 12 19
3 10 -7 18 -14 18 -18 0 -3 7 -6 15 -6 11 0 12 4 3 14 -8 11 -7 12 6 7 9 -3
16 -11 17 -18 0 -6 4 -2 9 9 5 11 9 14 9 8 1 -7 8 -13 17 -13 8 0 12 5 9 10
-3 6 -2 10 4 10 5 0 11 -4 13 -9 1 -5 18 -11 36 -14 17 -3 30 -2 27 3 -3 4 2
11 11 14 8 3 13 2 10 -3 -3 -5 1 -11 9 -14 9 -4 12 -1 8 9 -4 12 -1 13 21 4
18 -6 26 -6 26 1 0 6 5 7 10 4 6 -4 7 -12 3 -18 -5 -8 -2 -8 9 0 8 7 19 9 23
5 5 -4 5 -1 1 6 -4 7 -13 9 -19 6 -7 -4 -8 -3 -4 1 13 15 38 14 44 -1 3 -8 10
-14 15 -14 6 0 5 6 -2 15 -10 12 -10 15 3 15 9 0 20 7 25 16 6 11 12 13 16 6
8 -13 36 -5 36 10 0 5 -4 7 -9 3 -5 -3 -12 -1 -16 5 -3 5 1 10 10 10 9 0 13 5
10 10 -4 6 -11 8 -16 4 -6 -3 -5 3 3 15 17 28 23 27 38 -9 7 -16 19 -35 28
-42 14 -11 14 -9 -1 14 -10 16 -13 28 -8 28 6 0 14 -7 19 -16 8 -15 10 -15 15
1 4 9 12 13 18 10 14 -9 58 -14 57 -6 -2 17 3 31 10 30 22 -4 31 3 26 19 -5
14 -3 14 10 -2 9 -11 16 -15 16 -10 0 6 -5 15 -12 22 -8 8 -8 12 -1 12 16 0
34 -25 25 -36 -4 -5 -3 -6 2 -2 5 4 16 2 25 -4 12 -10 12 -8 -2 8 -24 29 -21
41 5 18 15 -12 18 -13 10 -3 -28 37 14 61 53 30 20 -16 20 -16 3 5 -23 27 -23
29 7 30 19 2 23 -1 16 -10 -6 -8 -6 -17 1 -26 8 -12 9 -12 4 2 -3 10 -1 20 4
23 5 3 11 -3 13 -12 3 -13 5 -13 6 -3 0 8 -9 26 -20 40 -11 14 -18 20 -15 14
3 -7 -4 -10 -19 -8 -16 1 -23 -2 -19 -8 5 -7 2 -8 -6 -3 -8 5 -11 4 -6 -3 4
-7 -1 -10 -14 -7 -11 2 -18 0 -15 -5 6 -11 -14 -7 -40 7 -11 5 -26 8 -32 6 -7
-3 -13 0 -13 7 0 6 4 9 9 6 5 -3 12 1 15 10 3 8 10 13 15 9 6 -3 14 3 20 12 8
14 10 15 11 3 0 -13 1 -13 10 0 13 20 13 4 -1 -22 -16 -30 -3 -33 16 -4 11 16
14 31 9 39 -5 7 -2 5 7 -5 23 -24 33 -9 12 16 -14 16 -15 18 -2 8 14 -11 17
-9 17 13 0 14 -4 25 -8 25 -4 0 -8 30 -9 67 -1 36 -5 72 -10 80 -4 8 -5 35 -1
61 3 26 3 61 0 77 -3 17 -3 44 1 60 4 17 6 93 5 170 -2 143 3 181 31 247 14
33 19 36 49 34 31 -4 34 -1 53 48 12 28 30 85 40 126 11 41 35 115 55 164 20
49 36 105 36 126 0 26 22 79 77 186 115 225 158 313 186 384 39 99 91 269 104
340 2 14 9 45 14 70 14 61 23 162 22 235 -2 108 -2 130 2 155 2 14 4 25 5 25
1 0 3 10 6 23 4 20 132 280 144 292 3 3 20 34 38 70 18 36 45 88 61 115 15 28
46 85 69 127 23 42 54 98 70 125 15 26 31 55 35 63 4 8 17 31 30 50 82 131
110 170 121 170 7 0 23 18 36 40 69 114 139 220 168 258 19 23 31 42 28 42
-17 0 28 49 49 54 36 9 143 174 129 198 -3 5 10 26 29 46 157 164 199 205 250
245 32 26 64 47 72 47 7 0 15 5 17 11 2 6 21 11 41 11 47 0 101 -34 177 -111
59 -60 170 -203 170 -219 0 -6 4 -12 9 -14 16 -6 164 -242 199 -318 20 -41 59
-109 87 -150 47 -68 213 -386 231 -442 4 -13 21 -54 39 -93 35 -75 48 -103 90
-205 15 -36 32 -76 38 -90 6 -14 11 -27 12 -30 12 -43 110 -236 133 -265 31
-37 59 -103 76 -175 11 -46 11 -58 0 -68 -14 -12 -13 -39 5 -122 9 -44 0 -85
-19 -85 -27 -1 -39 -15 -34 -43 12 -65 28 -108 50 -135 13 -16 24 -32 24 -36
0 -4 11 -13 25 -19 14 -6 25 -19 25 -29 0 -19 5 -37 50 -170 16 -51 44 -116
61 -145 17 -29 30 -53 28 -53 -1 0 5 -12 14 -26 10 -15 19 -35 21 -45 4 -21
62 -124 107 -189 28 -40 28 -40 8 -61 -20 -22 -20 -33 1 -128 9 -39 54 -96 77
-96 7 0 10 -6 7 -15 -4 -9 5 -32 19 -53 30 -43 50 -109 36 -118 -5 -3 -5 -12
0 -22 4 -9 14 -39 20 -67 15 -59 38 -90 56 -75 28 23 84 -124 72 -188 -3 -14
0 -37 6 -51 5 -15 11 -55 13 -91 1 -36 3 -70 3 -76 1 -5 9 -19 20 -30 22 -25
34 -103 36 -246 1 -85 -1 -103 -11 -90 -7 9 -10 20 -8 24 3 5 0 8 -6 8 -7 0
-10 -7 -6 -15 3 -8 1 -15 -5 -15 -6 0 -7 -5 -3 -12 4 -6 3 -8 -4 -5 -5 4 -9
19 -7 34 l3 26 -17 -22 c-13 -18 -19 -19 -30 -9 -8 7 -11 8 -8 2 4 -8 -6 -14
-29 -19 -27 -5 -34 -10 -30 -22 5 -11 2 -14 -9 -9 -9 3 -13 2 -10 -3 3 -5 1
-12 -5 -16 -6 -4 -8 -11 -4 -16 3 -6 12 -3 21 8 8 10 11 12 7 4 -4 -9 0 -19
12 -28 16 -12 20 -11 31 9 l14 23 -7 -24 c-4 -16 -3 -21 5 -17 6 4 11 2 11 -4
0 -7 -7 -9 -16 -6 -10 4 -14 2 -11 -6 2 -7 10 -12 16 -10 7 1 9 -2 5 -9 -4 -7
-2 -10 7 -7 8 3 13 14 11 24 -3 18 -3 18 12 -1 14 -18 15 -18 16 -2 0 9 5 17
11 17 7 0 5 -9 -4 -24 -15 -23 -13 -36 5 -36 5 0 7 4 4 8 -2 4 0 14 5 22 7 12
10 11 15 -7 7 -25 20 -30 27 -10 2 6 2 1 0 -13 -3 -19 -2 -22 7 -14 9 9 17 7
34 -10 11 -11 20 -24 19 -28 -2 -4 6 -6 17 -5 20 1 29 17 10 17 -5 0 -10 4
-10 8 0 5 7 9 15 9 8 0 13 -3 10 -5 -3 -3 0 -11 7 -19 8 -11 8 -17 -2 -26 -7
-7 -10 -7 -7 -1 3 6 0 11 -8 11 -8 0 -15 -4 -15 -8 0 -13 23 -16 58 -8 32 7
49 -2 37 -20 -3 -5 -1 -12 5 -16 6 -4 7 -11 4 -17 -4 -7 -2 -8 5 -4 9 6 9 11
0 22 -9 11 -9 14 0 14 7 0 10 4 7 9 -4 5 5 4 18 -2 13 -7 22 -16 18 -22 -3 -5
1 -4 10 2 18 15 29 7 21 -15 -4 -10 -2 -13 5 -8 7 4 12 14 12 22 0 17 16 19
26 2 5 -7 3 -8 -6 -3 -8 5 -11 4 -7 -2 4 -6 22 -8 47 -3 22 4 40 3 40 -1 0 -5
-5 -9 -12 -9 -6 0 -8 -3 -5 -7 4 -3 17 2 29 13 12 10 18 13 14 7 -4 -8 -1 -13
9 -13 10 0 14 5 10 13 -4 6 0 4 8 -6 10 -12 17 -14 22 -8 3 6 11 11 16 11 6 0
8 -4 5 -9 -9 -13 19 -7 38 8 14 12 16 12 10 -2 -4 -12 -1 -14 15 -10 11 3 18
10 14 16 -4 6 -1 7 7 2 8 -5 32 -8 53 -6 25 1 36 -2 32 -9 -3 -5 -1 -10 4 -10
6 0 11 6 11 13 0 15 40 18 40 2 0 -5 5 -2 11 8 8 14 14 15 24 7 9 -8 15 -8 20
0 3 6 11 8 16 5 5 -4 9 -1 9 5 0 6 5 8 10 5 6 -3 10 -1 10 5 0 6 5 8 10 5 6
-3 10 -1 10 5 0 6 4 8 10 5 6 -4 7 2 1 17 -4 13 -9 43 -11 68 -3 62 -7 92 -13
110 -19 57 -31 106 -29 115 2 5 0 7 -4 3 -11 -12 -85 75 -80 95 2 9 -9 45 -26
80 -17 34 -44 91 -60 127 -16 36 -38 74 -48 85 -17 19 -45 138 -42 180 1 24
-14 35 -50 35 -22 0 -28 6 -33 32 -4 18 -19 50 -32 72 -19 30 -26 56 -28 105
-3 60 -34 205 -49 230 -3 5 -9 24 -12 43 -2 18 -6 40 -7 48 -2 9 -6 21 -11 28
-4 6 -4 13 1 13 4 1 13 2 18 4 6 1 16 3 22 3 16 2 40 52 37 77 -4 33 -12 77
-24 130 -5 28 -12 61 -15 75 -2 14 -6 34 -9 45 -12 57 -58 283 -61 305 -2 14
-11 59 -20 100 -9 41 -18 91 -21 110 -3 19 -7 43 -10 52 -6 21 -12 52 -19 98
-3 19 -17 85 -31 145 -28 120 -29 129 -38 225 -11 115 -31 272 -40 310 -18 74
-23 178 -11 223 8 29 -3 49 -27 53 -7 1 -22 3 -33 5 -28 4 -93 -20 -104 -38
-5 -10 -1 -29 14 -57 26 -47 33 -74 40 -166 10 -119 45 -341 65 -411 9 -31 2
-48 -21 -49 -9 0 -46 87 -70 167 -13 40 -25 70 -29 68 -3 -2 -12 0 -20 5 -12
7 -15 36 -16 132 -1 115 -11 244 -19 258 -2 4 -7 20 -10 37 -2 17 -16 64 -30
104 -15 41 -28 85 -31 99 -3 14 -17 59 -31 100 -26 77 -27 95 -38 395 -3 88
-7 171 -8 185 -1 15 9 38 24 57 25 28 26 35 18 79 -5 26 -8 48 -7 49 2 1 21 6
43 11 72 17 81 68 60 324 -4 47 -8 119 -10 160 -1 41 -8 98 -15 125 -6 28 -13
57 -15 65 -2 8 -8 35 -13 60 -26 111 -34 170 -27 187 5 10 8 21 7 24 0 3 -3
35 -6 71 -3 36 -12 78 -20 93 -8 15 -13 46 -11 69 1 22 -1 46 -5 51 -4 6 -10
28 -13 50 -13 87 -21 108 -57 144 -20 20 -40 44 -43 54 -4 9 -13 17 -20 17 -8
0 -14 6 -14 13 0 7 -8 34 -18 60 -18 48 -18 48 -57 43 -22 -3 -43 -8 -48 -11
-5 -3 -6 -38 -3 -78 5 -70 4 -71 -12 -49 -27 37 -96 82 -125 82 -18 0 -30 6
-33 18 -3 9 -22 57 -42 105 -20 49 -35 91 -32 93 2 3 14 6 25 9 69 13 97 82
78 190 -2 11 1 25 6 31 8 11 7 52 -7 199 -10 112 -26 155 -57 155 -9 0 -26 16
-38 35 -22 36 -55 51 -90 42 -11 -3 -23 -1 -26 4 -6 11 -6 221 0 294 14 160
19 199 36 287 10 53 24 106 30 117 6 12 8 21 5 21 -3 0 1 16 9 35 9 20 15 38
15 41 -2 15 45 114 51 107 4 -4 17 -52 30 -106 13 -54 31 -121 40 -150 16 -46
16 -54 3 -69 -23 -26 -5 -93 25 -92 16 0 24 -8 33 -35 24 -73 103 -227 129
-251 3 -3 15 -17 27 -33 39 -50 117 -107 168 -121 110 -31 173 -36 490 -40
214 -3 255 -5 282 -20 25 -13 47 -16 93 -12 64 6 108 15 125 25 17 10 209 9
223 -2 7 -6 27 -11 45 -12 18 -1 46 -5 62 -9 30 -6 49 1 123 49 35 23 77 83
93 134 6 20 13 43 16 51 3 8 7 22 9 30 15 72 23 100 38 129 16 30 17 56 5 101
-6 21 81 42 236 56 96 9 135 26 135 59 0 18 -9 31 -32 45 -28 17 -46 18 -177
14 -80 -2 -153 -4 -161 -3 -54 4 -122 1 -165 -6 -27 -4 -59 -9 -70 -10 -33 -3
-89 16 -109 38 -20 20 -19 21 17 91 50 97 64 142 62 201 -2 68 -12 92 -38 99
-21 5 -67 -26 -67 -46 0 -5 -20 -52 -46 -104 -45 -95 -70 -120 -110 -115 -25
2 -74 -53 -117 -131 -20 -38 -22 -48 -11 -48 10 0 3 -15 -21 -45 -27 -33 -49
-48 -79 -55 -22 -6 -51 -16 -62 -21 -32 -16 -38 -14 -359 150 -44 22 -91 41
-106 41 -34 0 -49 17 -49 56 0 18 -6 39 -14 47 -17 16 -26 64 -31 162 -4 78
-25 165 -56 240 -19 43 -21 62 -15 148 3 54 8 102 10 105 6 11 18 147 19 217
1 101 -18 243 -40 295 -3 8 -7 21 -9 28 -5 24 -86 182 -93 182 -4 0 -13 11
-19 25 -6 13 -39 54 -74 91 -63 66 -150 120 -271 167 -34 13 -55 29 -69 53
-16 28 -47 47 -179 111 -87 42 -159 81 -159 86 0 9 15 38 110 212 35 63 375
668 406 721 17 29 17 33 2 48 -9 9 -21 16 -27 16 -6 0 -11 5 -11 10 0 6 -7 10
-15 10 -8 0 -15 3 -15 8 0 4 -19 15 -42 25 l-42 19 -18 -24 c-9 -13 -18 -29
-18 -35 0 -7 -3 -13 -8 -13 -4 0 -13 -14 -21 -31 -8 -18 -34 -64 -57 -103 -24
-38 -44 -74 -44 -78 0 -5 -8 -21 -19 -36 -21 -31 -75 -125 -76 -132 0 -3 -8
-16 -17 -30 -8 -14 -22 -37 -29 -52 -49 -93 -108 -199 -121 -215 -6 -7 -8 -13
-5 -13 4 0 -9 -27 -28 -59 -19 -33 -35 -64 -35 -70 0 -6 -4 -11 -10 -11 -5 0
-10 -7 -10 -16 0 -23 -24 -11 -28 14 -2 12 -8 22 -13 22 -5 0 -9 8 -9 18 0 10
-4 22 -8 27 -9 12 -28 67 -37 110 -3 19 0 46 10 68 8 20 14 38 13 39 -1 2 3
12 9 23 6 11 14 37 17 59 4 21 8 42 11 46 2 3 12 42 21 86 32 147 19 583 -22
748 -23 93 -130 286 -159 286 -8 0 -49 18 -92 39 -43 21 -98 44 -123 51 -63
17 -216 20 -272 5z m1012 -5220 c0 -3 8 -38 19 -78 33 -127 34 -131 19 -116
-23 23 -40 77 -42 127 -1 26 -5 53 -10 60 -4 7 -2 12 3 12 6 0 11 -2 11 -5z
m775 -5935 c-4 -6 -1 -19 7 -28 12 -16 11 -16 -6 -2 -18 14 -19 13 -13 -2 3
-10 2 -20 -3 -23 -18 -11 -11 -25 13 -26 18 -1 19 -2 3 -6 -25 -7 -43 12 -28
30 7 8 9 16 6 20 -6 6 13 47 22 47 3 0 2 -5 -1 -10z m-38 -14 c-13 -10 -15
-15 -5 -19 7 -2 10 -8 5 -12 -4 -5 -14 0 -23 11 -15 19 -15 18 -11 -2 5 -25
-8 -52 -20 -41 -4 5 -1 12 7 17 8 6 10 10 4 10 -11 0 -16 29 -5 31 24 3 44 8
49 13 3 3 8 6 11 6 3 0 -2 -7 -12 -14z m89 -18 c4 -7 4 -10 -1 -6 -4 4 -14 0
-22 -10 -13 -15 -13 -15 -3 6 12 25 16 27 26 10z m9 -27 c3 -5 2 -12 -3 -15
-5 -3 -9 1 -9 9 0 17 3 19 12 6z m-4202 -48 c-5 -12 -3 -14 7 -8 9 5 11 4 6
-3 -4 -7 -1 -12 9 -12 12 0 13 4 6 18 -7 14 -5 17 17 19 19 1 21 -1 11 -8 -10
-7 -4 -8 19 -5 17 2 32 0 32 -5 0 -9 -7 -11 -45 -13 -10 -1 -25 -12 -32 -26
-7 -14 -13 -21 -13 -16 0 6 -9 0 -20 -12 -16 -17 -25 -20 -39 -13 -10 6 -22 6
-27 1 -5 -5 -17 -2 -29 7 -16 12 -16 14 -3 10 20 -7 45 27 28 38 -5 3 -10 -2
-10 -11 0 -10 -3 -15 -6 -11 -4 3 -4 14 0 23 5 12 10 13 19 6 8 -7 18 -7 27
-2 8 5 18 6 23 3 5 -3 8 3 7 13 -3 29 -1 36 10 29 5 -3 6 -13 3 -22z m4227 23
c0 -2 -7 -7 -16 -10 -8 -3 -12 -2 -9 4 6 10 25 14 25 6z m-4269 -29 c-7 -7
-14 -8 -21 -1 -6 6 -2 10 12 11 16 2 18 -1 9 -10z m4244 -5 c-3 -3 -11 0 -18
7 -9 10 -8 11 6 5 10 -3 15 -9 12 -12z m-4311 -27 c3 -8 1 -15 -4 -15 -6 0
-10 7 -10 15 0 8 2 15 4 15 2 0 6 -7 10 -15z m4384 -18 c13 5 14 3 5 -7 -14
-15 -33 -5 -32 18 1 16 2 16 6 0 3 -11 10 -15 21 -11z"/>
<path d="M3217 226 c-7 -6 -19 -20 -27 -31 l-15 -20 25 20 c14 11 28 24 31 28
3 5 9 1 12 -8 4 -9 3 -13 -2 -10 -5 3 -12 1 -15 -4 -14 -22 13 -18 34 4 13 14
22 26 19 26 -21 7 -51 4 -62 -5z"/>
<path d="M4435 509 c-4 -6 -5 -12 -2 -15 2 -3 7 2 10 11 7 17 1 20 -8 4z"/>
<path d="M4195 460 c-3 -5 -1 -10 4 -10 6 0 11 5 11 10 0 6 -2 10 -4 10 -3 0
-8 -4 -11 -10z"/>
<path d="M3675 409 c-4 -6 -5 -12 -2 -15 2 -3 7 2 10 11 7 17 1 20 -8 4z"/>
<path d="M3456 394 c-3 -9 -11 -12 -18 -8 -9 5 -9 3 1 -9 10 -13 10 -17 1 -17
-10 0 -10 -3 0 -16 11 -12 11 -15 0 -12 -7 2 -15 -3 -17 -10 -4 -11 -1 -12 17
-2 20 11 26 9 47 -14 13 -14 31 -26 39 -26 9 0 12 -5 8 -12 -4 -7 -3 -8 5 -4
14 9 5 26 -14 26 -23 0 -25 15 -3 29 18 11 20 11 15 -3 -4 -11 -2 -13 10 -9
11 4 14 2 9 -5 -4 -6 3 -16 16 -22 21 -10 21 -10 6 3 -10 8 -15 16 -13 19 3 3
-1 11 -9 17 -16 13 -11 45 5 35 5 -3 7 -9 4 -14 -3 -4 2 -13 9 -20 11 -9 20
-8 38 1 13 7 28 12 35 11 6 -1 14 2 18 7 7 12 -15 51 -29 51 -4 0 -3 -6 3 -14
7 -9 8 -17 2 -20 -5 -3 -11 -3 -14 1 -2 5 -2 2 -1 -4 4 -15 -26 -32 -44 -26
-19 7 -4 23 16 17 14 -5 15 -4 2 5 -12 8 -12 11 -1 11 7 0 11 6 7 15 -3 8 2
19 12 24 15 9 14 10 -5 8 -14 -1 -20 -7 -18 -18 2 -10 -3 -24 -12 -31 -14 -11
-15 -10 -8 12 7 23 7 23 -9 7 -21 -21 -33 -23 -16 -2 8 9 8 15 2 15 -6 0 -14
-9 -17 -20 -4 -11 -11 -18 -16 -15 -5 4 -5 15 2 28 9 19 8 19 -10 -3 -10 -13
-18 -27 -16 -31 2 -3 -6 -5 -18 -4 -27 2 -30 20 -3 20 11 0 21 6 23 13 3 6 0
12 -7 12 -6 0 -8 -5 -4 -11 4 -7 1 -10 -7 -7 -8 3 -13 12 -11 22 4 20 -4 21
-12 0z m80 -46 c4 4 2 -1 -5 -10 -7 -10 -17 -15 -22 -12 -5 3 -9 0 -9 -6 0 -6
-4 -8 -10 -5 -14 9 -12 25 3 23 6 -2 11 3 9 11 -2 11 0 12 11 3 8 -7 18 -8 23
-4z m124 2 c0 -5 -5 -10 -11 -10 -5 0 -7 5 -4 10 3 6 8 10 11 10 2 0 4 -4 4
-10z"/>
<path d="M3935 401 c-3 -5 -2 -12 3 -15 5 -3 9 1 9 9 0 17 -3 19 -12 6z"/>
<path d="M7013 395 c0 -8 4 -12 9 -9 5 3 6 10 3 15 -9 13 -12 11 -12 -6z"/>
<path d="M7053 395 c0 -8 4 -12 9 -9 5 3 6 10 3 15 -9 13 -12 11 -12 -6z"/>
<path d="M7090 400 c0 -5 5 -10 11 -10 5 0 7 5 4 10 -3 6 -8 10 -11 10 -2 0
-4 -4 -4 -10z"/>
<path d="M3894 386 c1 -8 5 -18 8 -22 4 -3 5 1 4 10 -1 8 -5 18 -8 22 -4 3 -5
-1 -4 -10z"/>
<path d="M7169 383 c-7 -10 -9 -15 -5 -11 5 4 15 0 22 -10 20 -25 17 -34 -6
-20 -17 11 -22 10 -36 -10 -13 -18 -19 -21 -30 -11 -8 6 -17 9 -21 6 -3 -4 2
-9 11 -13 9 -3 13 -11 9 -18 -3 -6 -1 -6 8 2 18 17 34 15 20 -2 -9 -10 -9 -16
-1 -21 6 -4 14 -4 17 -1 4 3 1 6 -6 6 -7 0 -10 4 -7 8 8 13 49 7 54 -6 2 -8
-3 -10 -15 -6 -17 5 -17 5 0 -6 9 -6 15 -16 11 -21 -7 -12 14 -39 30 -39 6 0
3 5 -6 11 -10 5 -18 15 -18 21 0 6 11 3 25 -6 14 -9 25 -12 25 -6 0 5 -5 10
-11 10 -5 0 -7 4 -4 10 4 6 -1 7 -11 3 -15 -6 -15 -4 0 19 9 13 14 27 11 30
-3 3 1 8 9 11 10 4 13 1 9 -9 -3 -7 0 -14 7 -14 6 0 8 -5 5 -10 -4 -6 -11 -8
-16 -4 -5 3 -2 -10 7 -29 9 -19 29 -40 43 -47 25 -11 25 -10 -3 13 -20 16 -26
26 -17 31 6 4 9 11 6 16 -3 5 -1 11 4 15 6 3 8 -5 5 -19 -2 -14 0 -28 6 -31 5
-3 10 -1 10 5 0 6 5 8 10 5 6 -4 8 -10 5 -15 -3 -5 -1 -11 4 -15 6 -3 8 -13 5
-23 -4 -10 -2 -13 3 -7 4 6 17 17 27 25 18 14 19 13 13 -2 -4 -13 -2 -15 10
-11 12 5 14 3 8 -8 -8 -12 -6 -12 8 0 10 8 19 12 21 10 2 -2 9 -13 15 -24 l13
-20 -6 20 c-6 20 -6 20 9 1 8 -11 15 -14 15 -8 0 7 4 12 10 12 5 0 7 -8 4 -17
-5 -15 -4 -16 5 -3 9 13 15 9 13 -10 0 -3 9 -7 20 -7 20 -2 20 -1 2 12 -15 11
-15 14 -4 15 10 0 7 5 -8 16 -12 8 -26 13 -31 10 -5 -3 -14 1 -21 10 -7 8 -20
12 -28 9 -18 -7 -44 14 -35 29 3 6 -5 1 -19 -11 -24 -23 -52 -33 -31 -12 9 9
8 17 -5 34 -15 19 -18 20 -28 7 -9 -12 -11 -11 -10 9 1 13 -3 24 -9 24 -22 1
-36 17 -26 29 6 7 8 16 4 20 -4 4 -1 11 7 16 13 9 13 10 0 11 -8 1 -19 3 -25
4 -5 2 -14 3 -19 4 -5 0 -2 9 5 19 11 14 10 13 -9 -2 -22 -19 -30 -32 -13 -21
5 3 12 1 16 -5 3 -5 1 -10 -5 -10 -7 0 -9 -8 -4 -22 3 -13 3 -20 -1 -16 -5 4
-14 3 -22 -3 -16 -14 -18 2 -2 18 8 8 6 18 -5 35 -9 14 -13 28 -9 31 3 4 4 7
1 7 -3 0 -12 -8 -19 -17z m93 -30 c-9 -4 -10 -8 -2 -18 11 -13 8 -13 -29 -6
-9 2 23 31 33 30 6 0 6 -3 -2 -6z m-76 -25 c5 -8 2 -9 -11 -4 -15 5 -16 4 -5
-9 8 -9 8 -15 2 -15 -15 0 -25 18 -17 30 8 13 22 13 31 -2z m34 -49 c-14 -25
-17 -24 -14 4 3 30 3 29 14 22 7 -4 7 -13 0 -26z m57 -14 c0 -8 -4 -15 -9 -15
-10 0 -11 14 -1 23 9 10 10 9 10 -8z m62 -29 c9 -11 9 -16 -1 -22 -7 -4 -10
-4 -6 1 4 4 3 14 -3 22 -6 7 -9 13 -6 13 2 0 10 -6 16 -14z m62 -33 c13 -16
12 -17 -3 -4 -17 13 -22 21 -14 21 2 0 10 -8 17 -17z m60 -20 c13 -17 13 -17
-6 -3 -11 8 -22 16 -24 17 -2 2 0 3 6 3 6 0 17 -8 24 -17z"/>
<path d="M7290 385 c-7 -9 -8 -15 -2 -15 5 0 12 7 16 15 3 8 4 15 2 15 -2 0
-9 -7 -16 -15z"/>
<path d="M3696 378 c3 -4 9 -8 15 -8 5 0 9 4 9 8 0 5 -7 9 -15 9 -8 0 -12 -4
-9 -9z"/>
<path d="M3819 373 c-13 -17 -13 -17 5 -3 18 13 19 13 14 -1 -4 -9 -1 -16 7
-16 10 0 11 5 4 19 -12 22 -13 22 -30 1z"/>
<path d="M7135 380 c-3 -5 -3 -10 2 -10 4 -1 -3 -7 -16 -14 -20 -11 -21 -14
-7 -19 10 -4 15 -3 11 2 -3 5 0 11 7 13 6 2 12 12 14 21 3 19 -2 22 -11 7z"/>
<path d="M7315 380 c-3 -5 -1 -10 4 -10 6 0 11 5 11 10 0 6 -2 10 -4 10 -3 0
-8 -4 -11 -10z"/>
<path d="M3676 367 c3 -10 9 -15 12 -12 3 3 0 11 -7 18 -10 9 -11 8 -5 -6z"/>
<path d="M7077 373 c-10 -9 -9 -23 1 -23 5 0 9 7 9 15 0 17 -1 18 -10 8z"/>
<path d="M3790 361 c0 -6 4 -13 10 -16 6 -3 7 1 4 9 -7 18 -14 21 -14 7z"/>
<path d="M3950 359 c0 -5 5 -7 10 -4 6 3 10 8 10 11 0 2 -4 4 -10 4 -5 0 -10
-5 -10 -11z"/>
<path d="M6840 360 c-12 -7 -10 -9 7 -7 12 0 19 5 17 9 -6 10 -6 10 -24 -2z"/>
<path d="M3884 342 c23 -26 23 -26 23 -7 0 8 -3 13 -5 10 -3 -3 -12 1 -21 7
-10 8 -9 4 3 -10z"/>
<path d="M4275 349 c-4 -6 -5 -12 -2 -15 2 -3 7 2 10 11 7 17 1 20 -8 4z"/>
<path d="M3700 346 c0 -2 7 -6 15 -10 8 -3 15 -1 15 4 0 6 -7 10 -15 10 -8 0
-15 -2 -15 -4z"/>
<path d="M6790 346 c0 -2 7 -7 16 -10 8 -3 12 -2 9 4 -6 10 -25 14 -25 6z"/>
<path d="M6990 335 c5 -7 6 -16 2 -21 -4 -5 -3 -5 2 -1 15 12 15 34 0 34 -9 0
-11 -4 -4 -12z"/>
<path d="M7045 339 c-4 -6 -5 -12 -2 -15 2 -3 7 2 10 11 7 17 1 20 -8 4z"/>
<path d="M3675 329 c-4 -6 -5 -12 -2 -15 2 -3 7 2 10 11 7 17 1 20 -8 4z"/>
<path d="M3756 324 c-4 -9 -4 -19 -1 -22 3 -3 5 0 5 7 0 7 4 9 10 6 6 -3 7 1
4 9 -8 20 -10 20 -18 0z"/>
<path d="M3345 320 c-4 -6 -11 -8 -16 -5 -5 4 -9 2 -9 -2 0 -5 8 -13 18 -19
14 -9 17 -7 18 12 2 26 -1 30 -11 14z"/>
<path d="M3391 307 c-13 -21 -12 -21 5 -5 10 10 16 20 13 22 -3 3 -11 -5 -18
-17z"/>
<path d="M3693 315 c-3 -9 -3 -19 1 -22 3 -4 6 1 6 11 0 10 5 14 12 10 7 -4 8
-3 4 4 -10 16 -15 15 -23 -3z"/>
<path d="M3840 315 c-7 -8 -16 -13 -20 -10 -5 3 -11 2 -14 -3 -2 -4 6 -8 19
-8 14 0 22 2 20 5 -3 2 0 10 6 18 6 7 9 13 6 13 -2 0 -10 -7 -17 -15z"/>
<path d="M3630 311 c0 -6 4 -13 10 -16 6 -3 7 1 4 9 -7 18 -14 21 -14 7z"/>
<path d="M3610 301 c0 -6 4 -13 10 -16 6 -3 7 1 4 9 -7 18 -14 21 -14 7z"/>
<path d="M3865 299 c-3 -4 2 -6 10 -5 21 3 28 13 10 13 -9 0 -18 -4 -20 -8z"/>
<path d="M3936 298 c3 -5 10 -6 15 -3 13 9 11 12 -6 12 -8 0 -12 -4 -9 -9z"/>
<path d="M4140 306 c0 -2 8 -10 18 -17 15 -13 16 -12 3 4 -13 16 -21 21 -21
13z"/>
<path d="M6355 300 c-3 -5 -1 -10 4 -10 6 0 11 5 11 10 0 6 -2 10 -4 10 -3 0
-8 -4 -11 -10z"/>
<path d="M6790 299 c0 -5 5 -7 10 -4 6 3 10 8 10 11 0 2 -4 4 -10 4 -5 0 -10
-5 -10 -11z"/>
<path d="M7050 299 c0 -5 3 -8 8 -7 18 4 40 -15 35 -30 -4 -15 -3 -15 6 -2 8
11 7 18 -4 26 -8 6 -13 13 -10 15 2 3 -5 5 -15 6 -11 1 -20 -2 -20 -8z"/>
<path d="M3710 296 c0 -2 8 -10 18 -17 15 -13 16 -12 3 4 -13 16 -21 21 -21
13z"/>
<path d="M3780 286 c0 -2 8 -10 18 -17 15 -13 16 -12 3 4 -13 16 -21 21 -21
13z"/>
<path d="M3975 280 c3 -5 8 -10 11 -10 2 0 4 5 4 10 0 6 -5 10 -11 10 -5 0 -7
-4 -4 -10z"/>
<path d="M6993 273 c0 -9 4 -10 14 -2 7 6 13 12 13 14 0 1 -6 2 -13 2 -8 0
-14 -6 -14 -14z"/>
<path d="M7035 283 c3 -3 -3 -16 -12 -27 -14 -15 -14 -18 -2 -8 9 6 18 9 22 6
3 -3 4 1 3 10 -1 8 -5 18 -9 21 -4 3 -5 2 -2 -2z"/>
<path d="M6795 260 c-3 -5 -1 -10 4 -10 6 0 11 5 11 10 0 6 -2 10 -4 10 -3 0
-8 -4 -11 -10z"/>
<path d="M6940 266 c0 -2 8 -10 18 -17 15 -13 16 -12 3 4 -13 16 -21 21 -21
13z"/>
<path d="M7115 261 c-3 -5 -2 -12 3 -15 5 -3 9 1 9 9 0 17 -3 19 -12 6z"/>
<path d="M7150 250 c-8 -5 -10 -10 -5 -10 6 0 17 5 25 10 8 5 11 10 5 10 -5 0
-17 -5 -25 -10z"/>
<path d="M3390 240 c0 -5 7 -6 17 -3 12 5 14 3 8 -7 -5 -9 -4 -11 4 -6 6 4 9
12 6 17 -8 12 -35 12 -35 -1z"/>
<path d="M3735 240 c-3 -5 -1 -10 4 -10 6 0 11 5 11 10 0 6 -2 10 -4 10 -3 0
-8 -4 -11 -10z"/>
<path d="M6850 239 c0 -5 5 -7 10 -4 6 3 10 8 10 11 0 2 -4 4 -10 4 -5 0 -10
-5 -10 -11z"/>
<path d="M7093 225 c0 -8 4 -12 9 -9 5 3 6 10 3 15 -9 13 -12 11 -12 -6z"/>
<path d="M3435 220 c-3 -5 -1 -10 4 -10 6 0 11 5 11 10 0 6 -2 10 -4 10 -3 0
-8 -4 -11 -10z"/>
<path d="M4086 218 c3 -5 10 -6 15 -3 13 9 11 12 -6 12 -8 0 -12 -4 -9 -9z"/>
<path d="M6350 226 c0 -2 7 -7 16 -10 8 -3 12 -2 9 4 -6 10 -25 14 -25 6z"/>
<path d="M7017 215 c-4 -8 -3 -16 1 -19 4 -3 9 4 9 15 2 23 -3 25 -10 4z"/>
<path d="M7055 211 c-3 -5 -2 -12 3 -15 5 -3 9 1 9 9 0 17 -3 19 -12 6z"/>
<path d="M6915 201 c-3 -5 -2 -12 3 -15 5 -3 9 1 9 9 0 17 -3 19 -12 6z"/>
<path d="M7175 200 c3 -5 8 -10 11 -10 2 0 4 5 4 10 0 6 -5 10 -11 10 -5 0 -7
-4 -4 -10z"/>
<path d="M7250 200 c0 -5 5 -10 11 -10 5 0 7 5 4 10 -3 6 -8 10 -11 10 -2 0
-4 -4 -4 -10z"/>
<path d="M3117 178 c4 -7 8 -19 9 -26 2 -8 5 -17 8 -20 4 -3 4 5 2 19 -2 13
-5 27 -5 32 -1 4 -6 7 -12 7 -6 0 -7 -5 -2 -12z"/>
<path d="M3300 179 c0 -5 5 -7 10 -4 6 3 10 8 10 11 0 2 -4 4 -10 4 -5 0 -10
-5 -10 -11z"/>
<path d="M3330 182 c0 -5 7 -9 15 -9 8 0 12 4 9 9 -3 4 -9 8 -15 8 -5 0 -9 -4
-9 -8z"/>
<path d="M3430 181 c0 -6 4 -12 8 -15 5 -3 9 1 9 9 0 8 -4 15 -9 15 -4 0 -8
-4 -8 -9z"/>
<path d="M3710 180 c0 -5 5 -10 11 -10 5 0 7 5 4 10 -3 6 -8 10 -11 10 -2 0
-4 -4 -4 -10z"/>
<path d="M7413 155 c0 -8 4 -12 9 -9 5 3 6 10 3 15 -9 13 -12 11 -12 -6z"/>
<path d="M3230 138 c0 -10 17 -10 24 0 3 5 -1 9 -9 9 -8 0 -15 -4 -15 -9z"/>
<path d="M7625 119 c-4 -6 -5 -12 -2 -15 2 -3 7 2 10 11 7 17 1 20 -8 4z"/>
<path d="M2765 60 c-3 -6 1 -7 9 -4 18 7 21 14 7 14 -6 0 -13 -4 -16 -10z"/>
</g>
</svg>
